<svg height="369.062185" viewBox="0 0 57.500001 78.500001" width="270.957047" xmlns="http://www.w3.org/2000/svg"><g fill="#006946"><path d="m0 0c-.693.996-1.631 1.324-1.867 1.661-.234.336-.212 1.33-.903 2.328-1.31 1.883-2.495 1.223-3.493.53-1.058-.735-2.012-2.299-2.535-3.719-.249-.652-.274-.979-.398-.966-.084.009-.116.105-.141.405-.005.173-.016.348-.03.527 0 .007-.002.014-.002.023-.116 1.331-.471 2.736-1.08 3.612-.694.996-1.574 2.028-3.459.722-.996-.695-1.321-1.632-1.66-1.866-.008-.007-.019-.012-.03-.017-.153.11-.305.217-.455.317-2.013 1.348-3.723 1.862-3.797 1.885-1.044.314-2.013.519-2.902.65-.139.708-.26 1.544-.26 2.277-.004.411.039.78.126 1.078.09.256.156.277.289.127.097-.129.213-.296.293-.443.777-1.433 3.336-3.46 5.387-3.673 1.205-.125 2.561-.132 2.797 2.149.129 1.207-.371 2.069-.328 2.477.041.407.706 1.146.833 2.353v.002l.004.003c.237 2.28-1.093 2.553-2.299 2.678-.52.053-1.116-.008-1.73-.145-.007 0-.011-.002-.016-.002-.114-.026-.228-.057-.343-.087-.025-.006-.05-.013-.074-.02-.083-.023-.165-.046-.247-.073-.039-.012-.077-.023-.114-.036-.088-.027-.175-.055-.261-.087-.068-.022-.13-.047-.196-.07-.025-.009-.048-.018-.072-.027-.226-.087-.448-.178-.662-.278v.002c-.68-.313-.894-.427-.962-.327-.034.05.016.116.122.227.185.175.374.371.56.584.005.007.011.012.016.017.712.818 1.385 1.867 1.762 2.872l.011.031c.041.105.076.21.107.315.001.002.003.006.003.006.016.052.029.1.043.148.005.021.011.043.018.066.018.075.036.148.05.221.007.029.012.054.018.082.007.042.014.081.021.122.004.032.009.064.013.096.003.031.009.061.012.089.127 1.207.131 2.562-2.151 2.799-1.206.125-2.067-.373-2.477-.33-.407.041-1.144.707-2.353.833-2.282.236-2.555-1.094-2.681-2.299-.003-.028-.003-.057-.005-.085-.003-.063-.009-.129-.011-.193-.001-.046-.001-.096 0-.143 0-.052.002-.103.002-.155.002-.052.006-.104.009-.157.004-.048.009-.1.013-.15.012-.107.025-.216.043-.328.005-.036.01-.072.016-.109.012-.07.025-.138.039-.207.007-.034.014-.07.021-.104.017-.075.032-.15.05-.223.006-.021.013-.043.018-.064.22-.869.589-1.756 1.012-2.504.036-.063.068-.122.1-.179h.002c.253-.43.409-.609.332-.682-.061-.057-.154-.018-.396.156-.007.005-.015.01-.02.016-.13.101-.264.203-.402.305-.001 0-.005.004-.009.007-.003.002-.007.004-.008.007h-.002c-.005.004-.009.006-.014.009-1.08.78-2.373 1.421-3.433 1.533-1.206.124-2.561.131-2.802-2.152-.125-1.205.373-2.065.33-2.474-.039-.407-.707-1.148-.832-2.354-.124-1.214.191-1.86.696-2.217.447-.318 1.041-.409 1.609-.47l.005.004c2.087-.209 5.285 1.128 6.169 2.195.344.416.478.586.612.586.262 0 .218-.321.218-.541 0-.787.101-1.947.207-2.956-.447.036-.868.052-1.264.052-2.31 0-3.718-.518-4.018-.641-.157-.055-.76-.271-1.472-.596-.074.004-.136.013-.19.03-.389.129-.967.939-2.116 1.323-2.176.726-2.731-.512-3.115-1.664-.345-1.028-.282-2.49-.002-3.803h-.002c.159-.73.224-.967.109-1.01-.052-.022-.109.041-.193.167-.13.222-.282.447-.448.675-.005.007-.008.013-.014.02v-.002c-.903 1.226-2.268 2.477-3.504 2.888-1.153.386-2.473.684-3.2-1.49-.384-1.152-.085-2.1-.214-2.488-.13-.391-.939-.968-1.323-2.119-.724-2.176.513-2.731 1.664-3.115 1.223-.409 3.04-.237 4.489.193.678.191.957.369 1.021.261.043-.072-.016-.156-.239-.354-.139-.111-.277-.227-.413-.348-.003-.003-.005-.007-.01-.009-.998-.889-1.91-2.015-2.247-3.027-.386-1.153-.684-2.476 1.492-3.202 1.149-.382 2.097-.082 2.488-.212.389-.131.967-.941 2.118-1.325 2.174-.726 2.73.512 3.115 1.664.587 1.761-.027 4.758-.882 6.109 1.212-.994 1.537-1.21 2.139-1.585.101-.062 1.708-1.085 1.708-1.085s9.117-6.545 1.963-17.975c-.011-.018-.021-.036-.034-.054-.014-.034-.018-.066-.003-.091.012-.027.044-.043.083-.048h7.693s.118.009.082.144c-.032.134-3.41 12.705 1.917 15.366 2.387.423 3.749 1.478 4.02 1.709.65.487 1.094.972 1.383 1.454.005.009.009.018.014.025-.107-1.606.229-3.743 1.061-4.94.692-.996 1.574-2.026 3.455-.72 1 .693 1.325 1.634 1.66 1.866.339.235 1.333.212 2.329.904 1.885 1.311 1.225 2.496.532 3.492-.619.89-1.827 1.717-3.047 2.279-.012.004-.023.011-.033.014-.009.006-.017.009-.025.013-.634.289-.848.376-.816.489.014.057.1.064.255.053.252-.025.521-.041.8-.043h.028c1.521-.01 3.34.338 4.409 1.08 1 .691 2.029 1.573.721 3.456m-22.793-22.568c-.15-.245-.164-.314-.218-.3-.043.009-.003.071.034.3-.112-.705 1.589 8.405-2.159 12.425 0 0-.113.169.109.135.039-.005.09-.034.153-.055 1.605-.58 3.152-.873 3.231-.889 0 0 .642-.434.692-2.66.118-5.213-1.315-8.098-1.842-8.956m8.598 14.343c-1.348-.896-3.291-1.633-6.329-1.312-3.183.339-7.031 1.585-10.763 4.854-.743.651-2.056 2.541-1.416 4.781.217.757 1.482 1.085 2.428 1.114 2.088.062 3.752-.238 5.283-.614.014-.289.084-.537.082-.73 0-.018 0-.032-.002-.05v-.022-.001l.002-.004v-.005-.002c.011-.121.102-.223.225-.241l.006-.002h.001s.002-.002.004-.002h.005.002.007v-.001h.007.008c.017 0 .03.001.042.003h.002s.002.002.004.002h.001.006.002.001l.006.002h.002.003s.002.002.004.002l.005.001c.109.033.187.129.195.248v.011c.007.182.064.377.137.584.004.012.011.027.018.039.298-.066.601-.141.91-.219-.011-.07-.016-.138-.016-.2.004-.322.089-.593.086-.802 0-.014 0-.032-.002-.05v-.002c-.005-.148.111-.273.257-.278h.011c.143 0 .262.112.269.257 0 .009 0 .018.002.027.007.176.066.368.136.569.026.079.067.157.117.241.265-.077.53-.157.798-.244-.037-.116-.051-.236-.051-.343.005-.32.089-.593.085-.802v-.049c-.003-.043.006-.086.023-.125h.002l.002-.004.002-.002.002-.003s0-.004.001-.006v-.001c.02-.034.047-.065.077-.088l.006-.002v-.002c.042-.028.092-.046.144-.046h.009c.043 0 .082.009.12.027l.005.003.003.004h.002l.004.002h.003v.002l.004.001.002.002c.028.02.055.043.075.07l.005.005v.002l.002.004.002.001.001.004.002.002.002.003v.002c.002.002.003.004.003.004.02.037.031.076.034.119v.014c.008.182.065.377.136.582.034.102.097.204.17.318 2.625-.93 5.222-2.345 7.389-4.503.899-.973.453-2.31-.812-3.149m1.746 3.174c-.15-.007-.429.117-.97.651-2.079 2.035-4.526 3.397-6.918 4.305.047.065.086.159.084.261 0 .037-.003.073-.011.103-.012.075-.076.168-.148.204-.046.025-.082.034-.116.039-.036.011-.075.011-.116.006 0 0-.319-.077-.359-.122-.094-.039-.191-.089-.278-.153-.243.08-.484.157-.721.23.011.014.025.029.036.046.049.065.092.165.091.27 0 .037-.004.071-.011.103-.014.081-.082.17-.154.206-.039.021-.073.03-.103.035-.038.013-.081.015-.123.008 0 0-.322-.075-.361-.12-.141-.061-.28-.139-.4-.261-.283.073-.565.143-.842.206.025.019.054.042.089.069.043.036.095.077.143.145.05.062.093.162.093.269 0 .038-.006.072-.013.104-.014.075-.076.166-.15.203-.043.022-.078.032-.108.038-.038.011-.079.014-.122.007 0 0-.323-.077-.36-.121-.209-.09-.417-.222-.559-.463-.007-.012-.011-.027-.018-.039-2.492.478-4.078.557-4.964.559-.308 0-.462-.025-.812-.05-.175-.013-.505-.073-.68-.073-.278 0-.439.087-.539.171-.05.039-.126.093-.126.219-.006.22.185.496.51.764.482.404 1.224.786 1.842 1.062.619.277 1.112.452 1.112.452h.005l.005.003s.07.031.218.081c.443.153 1.546.462 3.215.462 1.23 0 2.77-.168 4.576-.694 0 0 .373-.109.966-.363 1.788-.76 5.546-2.827 7.013-7.112 0 0 .069-.209.141-.481.069-.273.137-.608.137-.844 0-.219-.094-.383-.194-.385" transform="matrix(1.25 0 0 -1.25 56.555606 27.89831)"/><path d="m0 0c0-1.581.027-2.22.068-2.545.094-.696.26-.861 1.158-.996.15-.027.218-.148.218-.271 0-.109-.055-.218-.177-.218h-3.893c-.124 0-.178.109-.178.218 0 .123.068.244.218.271.953.135 1.088.314 1.144.996.027.325.068.951.068 2.557v1.893c0 1.592-.041 2.355-.068 2.682-.056.682-.123.845-1.076.98-.15.027-.218.15-.218.273 0 .109.053.218.178.218h3.661c.123 0 .177-.109.177-.218 0-.123-.068-.246-.216-.273-.902-.135-.902-.286-.996-.98-.041-.327-.068-1.09-.068-2.654z" transform="matrix(1.25 0 0 -1.25 12.406726 72.90861)"/><path d="m0 0c-.136.205-.232.37-.232.462 0 .111.084.164.26.164 1.184 0 2.437.668 2.437 2.315 0 1.402-.994 2.166-2.613 2.166-.206 0-.573-.027-.696-.084v-5.158c0-2.205.041-2.492.096-2.914.068-.49.216-.655 1.117-.79.149-.027.216-.148.216-.271 0-.109-.053-.218-.176-.218h-3.881c-.121 0-.176.109-.176.218 0 .123.067.244.217.271.953.135 1.089.314 1.145.996.026.324.067.951.067 2.557v1.948c0 1.592-.041 2.3-.067 2.627-.056.682-.124.844-1.075.98-.152.027-.22.15-.22.273 0 .109.056.218.177.218h3.663c1.865 0 3.691-.764 3.691-2.724 0-1.633-1.364-2.533-2.574-2.736l2.219-3.077c.612-.843.965-1.143 1.686-1.51.07-.029.109-.083.109-.15 0-.15-.298-.191-.789-.191-1.035 0-1.647.176-1.974.667z" transform="matrix(1.25 0 0 -1.25 20.302736 72.53601)"/><path d="m0 0c.327-.041.614-.068.98-.068 1.348 0 1.824.04 2.027 1.117.029.149.152.217.274.217.109 0 .219-.054.219-.177 0-.395-.084-.83-.084-1.537 0-.776.084-1.05.084-1.337 0-.121-.11-.177-.219-.177-.122 0-.245.07-.274.22-.135.992-.692 1.021-1.986 1.021-.382 0-.668 0-1.021-.055v-.857c0-1.58.027-2.18.068-2.504.094-.696.571-.873 1.703-.996.148-.013.215-.148.215-.272 0-.109-.051-.217-.174-.217h-4.439c-.124 0-.177.108-.177.217 0 .124.07.245.218.272.951.135 1.089.314 1.142.996.029.324.07.91.07 2.516v1.989c0 1.592-.041 2.3-.07 2.627-.053.682-.121.844-1.074.98-.15.027-.216.15-.216.273 0 .109.052.218.174.218h6.496c.298 0 .503-.109.503-.397v-1.986c0-.15-.123-.23-.246-.23-.122 0-.257.08-.273.257-.107 1.076-.611 1.661-1.484 1.661h-1.742c-.205 0-.571-.026-.694-.082z" transform="matrix(1.25 0 0 -1.25 30.853486 70.91831)"/><path d="m0 0c0-1.773 1.144-2.668 2.615-2.668 1.783 0 2.777.883 2.777 2.163v3.186c0 1.592-.041 2.3-.069 2.627-.054.682-.124.844-1.075.98-.15.027-.218.15-.218.273 0 .109.054.218.177.218h3.295c.121 0 .177-.109.177-.218 0-.123-.068-.246-.218-.273-.898-.136-.898-.286-.994-.98-.04-.327-.04-1.035-.068-2.599l-.041-3.025c-.027-2.136-1.592-3.129-4.002-3.129-2.029 0-3.745.925-3.745 3.375v2.751c0 1.592-.041 2.3-.068 2.627-.053.682-.122.844-1.076.98-.15.027-.218.15-.218.273 0 .109.056.218.179.218h3.661c.123 0 .177-.109.177-.218 0-.123-.066-.246-.218-.273-.898-.136-.898-.286-.994-.98-.041-.327-.054-1.035-.054-2.599z" transform="matrix(1.25 0 0 -1.25 40.297736 73.80971)"/></g></svg>